<?xml version="1.0" encoding="UTF-8" standalone="no"?>
<svg
   xmlns:dc="http://purl.org/dc/elements/1.1/"
   xmlns:cc="http://creativecommons.org/ns#"
   xmlns:rdf="http://www.w3.org/1999/02/22-rdf-syntax-ns#"
   xmlns:svg="http://www.w3.org/2000/svg"
   xmlns="http://www.w3.org/2000/svg"
   xmlns:sodipodi="http://sodipodi.sourceforge.net/DTD/sodipodi-0.dtd"
   xmlns:inkscape="http://www.inkscape.org/namespaces/inkscape"
   version="1.0"
   id="Layer_1"
   x="0px"
   y="0px"
   width="24px"
   height="24px"
   viewBox="0 0 24 24"
   enable-background="new 0 0 24 24"
   xml:space="preserve"
   sodipodi:docname="asr.svg"
   inkscape:version="1.0.2 (394de47547, 2021-03-26)"><defs
   id="defs45" /><sodipodi:namedview
   pagecolor="#333"
   bordercolor="#666666"
   borderopacity="1"
   objecttolerance="10"
   gridtolerance="10"
   guidetolerance="10"
   inkscape:pageopacity="0"
   inkscape:pageshadow="2"
   inkscape:window-width="1848"
   inkscape:window-height="1016"
   id="namedview43"
   showgrid="false"
   inkscape:pagecheckerboard="true"
   inkscape:zoom="36.583333"
   inkscape:cx="12"
   inkscape:cy="9.9464976"
   inkscape:window-x="72"
   inkscape:window-y="27"
   inkscape:window-maximized="1"
   inkscape:current-layer="Layer_1" />
<g
   id="g38"
   transform="matrix(1.6343521,0,0,1.6343521,-7.6122252,-7.6122252)">
	<g
   id="g4">
		<path
   fill="#333"
   d="m 11.979,15.779 c -0.862,0 -1.733,-0.281 -2.462,-0.86 -0.814,-0.662 -1.319,-1.601 -1.426,-2.646 -0.106,-1.047 0.2,-2.071 0.862,-2.882 0.639,-0.802 1.563,-1.307 2.599,-1.418 1.052,-0.114 2.084,0.19 2.905,0.858 0.211,0.149 0.41,0.348 0.574,0.579 0.112,0.157 0.075,0.376 -0.082,0.488 C 14.791,10.01 14.573,9.973 14.461,9.815 14.343,9.649 14.199,9.505 14.034,9.388 13.342,8.825 12.491,8.575 11.627,8.668 10.778,8.76 10.023,9.172 9.498,9.83 8.952,10.499 8.7,11.34 8.788,12.201 c 0.088,0.859 0.502,1.63 1.168,2.172 1.393,1.105 3.42,0.89 4.518,-0.484 0.121,-0.153 0.342,-0.177 0.492,-0.055 0.15,0.121 0.176,0.341 0.055,0.492 -0.763,0.956 -1.895,1.453 -3.042,1.453 z"
   id="path2" />
	</g>
	<g
   id="g8">
		<path
   fill="#333"
   d="m 12.001,6.793 c -0.193,0 -0.35,-0.157 -0.35,-0.35 V 5.029 c 0,-0.193 0.156,-0.35 0.35,-0.35 0.194,0 0.35,0.157 0.35,0.35 v 1.414 c 0,0.194 -0.157,0.35 -0.35,0.35 z"
   id="path6" />
	</g>
	<g
   id="g12">
		<path
   fill="#333"
   d="m 12.001,19.321 c -0.193,0 -0.35,-0.157 -0.35,-0.35 v -1.387 c 0,-0.193 0.156,-0.35 0.35,-0.35 0.194,0 0.35,0.157 0.35,0.35 v 1.387 c 0,0.193 -0.157,0.35 -0.35,0.35 z"
   id="path10" />
	</g>
	<g
   id="g16">
		<path
   fill="#333"
   d="M 6.394,12.364 H 5.006 c -0.193,0 -0.35,-0.157 -0.35,-0.35 0,-0.193 0.156,-0.35 0.35,-0.35 h 1.388 c 0.193,0 0.35,0.157 0.35,0.35 0,0.193 -0.157,0.35 -0.35,0.35 z"
   id="path14" />
	</g>
	<g
   id="g20">
		<path
   fill="#333"
   d="m 16.928,17.284 c -0.09,0 -0.179,-0.034 -0.247,-0.102 L 15.69,16.194 c -0.137,-0.137 -0.138,-0.358 -10e-4,-0.495 0.137,-0.138 0.358,-0.137 0.495,-10e-4 l 0.991,0.988 c 0.137,0.137 0.138,0.358 10e-4,0.495 -0.069,0.069 -0.158,0.103 -0.248,0.103 z"
   id="path18" />
	</g>
	<g
   id="g24">
		<path
   fill="#333"
   d="M 8.036,8.405 C 7.947,8.405 7.857,8.371 7.789,8.303 L 6.797,7.314 C 6.66,7.178 6.659,6.957 6.796,6.819 6.932,6.683 7.154,6.682 7.291,6.818 L 8.283,7.806 C 8.42,7.943 8.421,8.165 8.284,8.302 8.216,8.37 8.126,8.405 8.036,8.405 Z"
   id="path22" />
	</g>
	<g
   id="g28">
		<path
   fill="#333"
   d="m 7.044,17.284 c -0.09,0 -0.18,-0.035 -0.248,-0.103 C 6.659,17.044 6.66,16.823 6.797,16.686 l 0.992,-0.988 c 0.138,-0.136 0.359,-0.134 0.495,10e-4 0.137,0.137 0.136,0.358 -0.001,0.495 L 7.291,17.182 C 7.223,17.25 7.133,17.284 7.044,17.284 Z"
   id="path26" />
	</g>
	<g
   id="g32">
		<path
   fill="#333"
   d="m 15.937,8.405 c -0.09,0 -0.18,-0.034 -0.248,-0.103 C 15.552,8.165 15.553,7.944 15.69,7.807 l 0.991,-0.988 c 0.137,-0.136 0.358,-0.137 0.495,0.001 0.137,0.137 0.136,0.358 -10e-4,0.495 l -0.991,0.988 c -0.069,0.068 -0.158,0.102 -0.247,0.102 z"
   id="path30" />
	</g>
	<g
   id="g36">
		<path
   fill="#333"
   d="m 17.777,14.512 h -4.418 c -0.063,0 -0.123,-0.017 -0.175,-0.047 -0.819,-0.135 -1.42,-0.813 -1.42,-1.631 0,-0.869 0.737,-1.607 1.629,-1.649 0.131,-1.099 1.069,-1.953 2.203,-1.953 1.188,0 2.165,0.915 2.242,2.069 0.841,0.06 1.506,0.75 1.506,1.59 0,0.853 -0.661,1.55 -1.539,1.621 -0.009,0 -0.018,0 -0.028,0 z m -4.282,-0.7 h 4.267 c 0.505,-0.047 0.884,-0.441 0.884,-0.921 0,-0.493 -0.415,-0.894 -0.925,-0.894 -0.133,0.019 -0.194,0.027 -0.255,0.027 -0.112,0 -0.219,-0.054 -0.284,-0.146 -0.065,-0.091 -0.084,-0.209 -0.048,-0.316 0.01,-0.027 0.011,-0.037 0.011,-0.113 0,-0.851 -0.68,-1.517 -1.548,-1.517 -0.838,0 -1.52,0.681 -1.52,1.517 v 0.113 c 0,0.256 -0.285,0.373 -0.536,0.33 -0.601,0.018 -1.077,0.426 -1.077,0.941 0,0.499 0.397,0.908 0.925,0.952 0.037,0.004 0.073,0.013 0.106,0.027 z"
   id="path34" />
	</g>
</g>

	
	
	<metadata
   id="metadata40">
		<rdf:RDF>
			<rdf:Description
   about="https://iconscout.com/legal#licenses"
   dc:title="Sun, Cloud, Weather, Forecast, Sunny, Nature, Sky"
   dc:description="Sun, Cloud, Weather, Forecast, Sunny, Nature, Sky"
   dc:publisher="Iconscout"
   dc:date="2016-12-14"
   dc:format="image/svg+xml"
   dc:language="en">
				<dc:creator>
					<rdf:Bag>
						<rdf:li>Chamestudio</rdf:li>
					</rdf:Bag>
				</dc:creator>
			</rdf:Description>
		<cc:Work
   rdf:about=""><dc:format>image/svg+xml</dc:format><dc:type
     rdf:resource="http://purl.org/dc/dcmitype/StillImage" /><dc:title></dc:title></cc:Work></rdf:RDF>
    </metadata></svg>
